<svg width="100" height="50" viewBox="0 0 100 50" fill="none" xmlns="http://www.w3.org/2000/svg">
<path fill-rule="evenodd" clip-rule="evenodd" d="M50 0C90 0 100 25 100 25C100 25 90 50 50 50C10 50 0 25 0 25C0 25 10 0 50 0ZM5.63098 25C5.83521 24.6586 6.0733 24.2789 6.34775 23.8673C7.68364 21.8634 9.87215 19.1151 13.2009 16.3411C19.7788 10.8595 31.1387 5 50 5C68.8613 5 80.2212 10.8595 86.7991 16.3411C90.1279 19.1151 92.3164 21.8634 93.6523 23.8673C93.9267 24.2789 94.1648 24.6586 94.369 25C94.1648 25.3414 93.9267 25.7211 93.6523 26.1327C92.3164 28.1366 90.1279 30.8849 86.7991 33.6589C80.2212 39.1405 68.8613 45 50 45C31.1387 45 19.7788 39.1405 13.2009 33.6589C9.87215 30.8849 7.68364 28.1366 6.34775 26.1327C6.0733 25.7211 5.83521 25.3414 5.63098 25ZM50.5 37C57.4036 37 63 31.4036 63 24.5C63 17.5964 57.4036 12 50.5 12C43.5964 12 38 17.5964 38 24.5C38 31.4036 43.5964 37 50.5 37Z" fill="black"/>
</svg>
