<svg width="50" height="50" viewBox="0 0 50 50" fill="none" xmlns="http://www.w3.org/2000/svg">
<circle cx="25" cy="25" r="25" fill="#FFC533"/>
<path fill-rule="evenodd" clip-rule="evenodd" d="M28.9719 11.0056C28.9905 10.8397 29 10.6709 29 10.5C29 8.01472 26.9853 6 24.5 6C22.0147 6 20 8.01472 20 10.5C20 10.6709 20.0095 10.8397 20.0281 11.0056L21 28.5C21 30.433 22.567 32 24.5 32C26.433 32 28 30.433 28 28.5L28.9719 11.0056ZM28 40.5C28 42.433 26.433 44 24.5 44C22.567 44 21 42.433 21 40.5C21 38.567 22.567 37 24.5 37C26.433 37 28 38.567 28 40.5Z" fill="white"/>
</svg>
