<svg width="50" height="50" viewBox="0 0 50 50" fill="none" xmlns="http://www.w3.org/2000/svg">
<circle cx="25" cy="25" r="25" fill="#3D3D3D"/>
<path fill-rule="evenodd" clip-rule="evenodd" d="M18 14.4795C18 12.6717 18.7815 11.3793 20.0008 10.4785C21.278 9.53512 23.0872 9 25 9C26.9128 9 28.722 9.53512 29.9992 10.4785C31.2185 11.3793 32 12.6717 32 14.4795C32 16.6711 31.5121 17.4197 31.1595 17.7825C30.9399 18.0084 30.6472 18.2125 30.1973 18.457C29.983 18.5735 29.7593 18.6856 29.4948 18.8182L29.4431 18.844C29.1671 18.9824 28.8522 19.1409 28.5308 19.319C27.1657 20.0753 25.6788 21.189 24.6031 23.4311C23.575 25.5737 23 28.5859 23 33C23 34.1046 23.8954 35 25 35C26.1046 35 27 34.1046 27 33C27 28.8661 27.55 26.5359 28.2094 25.1614C28.8212 23.8863 29.5843 23.3082 30.4692 22.8179C30.7103 22.6844 30.9579 22.5591 31.2356 22.4199L31.2994 22.388C31.5503 22.2623 31.8317 22.1213 32.1074 21.9715C32.7121 21.6428 33.4039 21.2125 34.028 20.5703C35.3629 19.1967 36 17.2741 36 14.4795C36 11.3009 34.5315 8.85362 32.3758 7.26119C30.278 5.71146 27.5872 5 25 5C22.4128 5 19.722 5.71146 17.6242 7.26119C15.4685 8.85362 14 11.3009 14 14.4795H14.0684C14.0238 14.6454 14 14.8199 14 15C14 16.1046 14.8954 17 16 17C17.1046 17 18 16.1046 18 15C18 14.8199 17.9762 14.6454 17.9316 14.4795H18ZM25 44C26.6569 44 28 42.6569 28 41C28 39.3431 26.6569 38 25 38C23.3431 38 22 39.3431 22 41C22 42.6569 23.3431 44 25 44Z" fill="white"/>
</svg>
