<svg width="50" height="50" viewBox="0 0 50 50" fill="none" xmlns="http://www.w3.org/2000/svg">
<circle cx="25" cy="25" r="25" fill="#35B24F"/>
<path fill-rule="evenodd" clip-rule="evenodd" d="M36.7316 14.7329C36.7318 14.7327 36.732 14.7325 36.7322 14.7322C37.1846 14.2798 37.8096 14 38.5 14C39.8807 14 41 15.1193 41 16.5C41 17.1904 40.7202 17.8154 40.2678 18.2678C40.2676 18.268 40.2674 18.2682 40.2672 18.2684L22.7678 35.7678L21 37.5355L19.2322 35.7678L9.73223 26.2678C9.27982 25.8154 9 25.1904 9 24.5C9 23.1193 10.1193 22 11.5 22C12.1904 22 12.8154 22.2798 13.2678 22.7322L21 30.4645L36.7316 14.7329Z" fill="white"/>
</svg>
