<svg width="50" height="50" viewBox="0 0 50 50" fill="none" xmlns="http://www.w3.org/2000/svg">
<circle cx="25" cy="25" r="25" fill="#E44930"/>
<path fill-rule="evenodd" clip-rule="evenodd" d="M25 20.7574L16.1219 11.8793L16.1213 11.8787C15.5784 11.3358 14.8284 11 14 11C12.3431 11 11 12.3431 11 14C11 14.8284 11.3358 15.5784 11.8787 16.1213L11.8793 16.1219L20.7574 25L11.8787 33.8787C11.3358 34.4216 11 35.1716 11 36C11 37.6569 12.3431 39 14 39C14.8284 39 15.5784 38.6642 16.1213 38.1213L25 29.2426L33.8787 38.1213C34.4216 38.6642 35.1716 39 36 39C37.6569 39 39 37.6569 39 36C39 35.1716 38.6642 34.4216 38.1213 33.8787L29.2426 25L38.1213 16.1213C38.6642 15.5784 39 14.8284 39 14C39 12.3431 37.6569 11 36 11C35.1716 11 34.4216 11.3358 33.8787 11.8787L25 20.7574Z" fill="white"/>
</svg>
