<svg width="410" height="494" viewBox="0 0 410 494" fill="none" xmlns="http://www.w3.org/2000/svg">
<path d="M20 40V453.5C20 464.546 28.9543 473.5 40 473.5H369.5C380.546 473.5 389.5 464.546 389.5 453.5V40C389.5 28.9543 380.546 20 369.5 20H40C28.9543 20 20 28.9543 20 40Z" stroke="black" stroke-width="40"/>
<path d="M289.5 116H120.5C119.395 116 118.5 116.895 118.5 118C118.5 119.105 119.395 120 120.5 120H289.5C290.605 120 291.5 119.105 291.5 118C291.5 116.895 290.605 116 289.5 116Z" stroke="black" stroke-width="40"/>
<path d="M289.5 201H120.5C119.395 201 118.5 201.895 118.5 203C118.5 204.105 119.395 205 120.5 205H289.5C290.605 205 291.5 204.105 291.5 203C291.5 201.895 290.605 201 289.5 201Z" stroke="black" stroke-width="40"/>
<path d="M289.5 286H118.5C117.395 286 116.5 286.895 116.5 288C116.5 289.105 117.395 290 118.5 290H289.5C290.605 290 291.5 289.105 291.5 288C291.5 286.895 290.605 286 289.5 286Z" stroke="black" stroke-width="40"/>
<path d="M289.5 371H118.5C117.395 371 116.5 371.895 116.5 373C116.5 374.105 117.395 375 118.5 375H289.5C290.605 375 291.5 374.105 291.5 373C291.5 371.895 290.605 371 289.5 371Z" stroke="black" stroke-width="40"/>
</svg>
