<svg width="220" height="283" viewBox="0 0 220 283" fill="none" xmlns="http://www.w3.org/2000/svg">
<path d="M215 72V245C215 247.761 212.761 250 210 250H192.5M215 72L148.5 5.5M215 72H153.5C150.739 72 148.5 69.7614 148.5 67V5.5M148.5 5.5H37.5C34.7386 5.5 32.5 7.73858 32.5 10.5V33.5M32.5 33.5V245C32.5 247.761 34.7386 250 37.5 250H192.5M32.5 33.5H10C7.23858 33.5 5 35.7386 5 38.5V272.5C5 275.261 7.23858 277.5 10 277.5H187.5C190.261 277.5 192.5 275.261 192.5 272.5V250M66 214H184C184.828 214 185.5 213.328 185.5 212.5V212.5C185.5 211.672 184.828 211 184 211H66C65.1716 211 64.5 211.672 64.5 212.5V212.5C64.5 213.328 65.1716 214 66 214ZM66.25 185H183.75C184.716 185 185.5 184.216 185.5 183.25V183.25C185.5 182.284 184.716 181.5 183.75 181.5H66.25C65.2835 181.5 64.5 182.284 64.5 183.25V183.25C64.5 184.216 65.2835 185 66.25 185ZM66.25 150.5H183.75C184.716 150.5 185.5 149.716 185.5 148.75V148.75C185.5 147.784 184.716 147 183.75 147H66.25C65.2835 147 64.5 147.784 64.5 148.75V148.75C64.5 149.716 65.2835 150.5 66.25 150.5ZM66.75 112H183.25C184.493 112 185.5 110.993 185.5 109.75V109.75C185.5 108.507 184.493 107.5 183.25 107.5H66.75C65.5074 107.5 64.5 108.507 64.5 109.75V109.75C64.5 110.993 65.5074 112 66.75 112ZM66.25 72H113.75C114.716 72 115.5 71.2165 115.5 70.25V70.25C115.5 69.2835 114.716 68.5 113.75 68.5H66.25C65.2835 68.5 64.5 69.2835 64.5 70.25V70.25C64.5 71.2165 65.2835 72 66.25 72ZM65.75 36H114.979C115.267 36 115.5 35.7668 115.5 35.4792V35.4792C115.5 34.3861 114.614 33.5 113.521 33.5H65.75C65.0596 33.5 64.5 34.0596 64.5 34.75V34.75C64.5 35.4404 65.0596 36 65.75 36Z" stroke="black" stroke-width="10"/>
</svg>
