<svg width="621" height="815" viewBox="0 0 621 815" fill="none" xmlns="http://www.w3.org/2000/svg">
<path d="M47.1166 766.499C-34.3833 684.999 93.6163 524.499 174.616 605.499C255.616 686.499 128.616 847.998 47.1166 766.499Z" stroke="black" stroke-width="40"/>
<path d="M449.097 590.427C560.428 560.596 635.425 751.697 524.777 781.345C414.129 810.993 337.767 620.258 449.097 590.427Z" stroke="black" stroke-width="40"/>
<path d="M198.116 664.5C209.257 626.261 252.491 531.041 286.545 494.556C292.376 488.309 301.86 488.292 307.755 494.479C341.334 529.721 382.286 618.197 396.116 664.5" stroke="black" stroke-width="40"/>
<path d="M282.344 389.754L179.861 575.201C176.132 581.948 177.141 590.324 182.365 595.993C190.005 604.284 203.315 603.534 209.975 594.437L282.637 495.191C290.867 483.95 307.781 484.357 315.461 495.981L379.027 592.189C385.865 602.539 400.378 604.232 409.414 595.735L414.163 591.27C420.885 584.949 422.41 574.851 417.856 566.827L317.243 389.556C309.528 375.964 289.904 376.075 282.344 389.754Z" fill="black" stroke="black" stroke-width="40"/>
<path d="M254.616 418.5L86.1164 105.5C78.7831 86.6667 72.7164 43.8 107.116 23" stroke="black" stroke-width="40"/>
<path d="M341.116 428L509.439 114.604C516.765 95.7472 522.825 52.8263 488.461 32" stroke="black" stroke-width="40"/>
<path d="M97.6164 10L287.67 347.609C292.739 356.612 290.115 367.995 281.616 373.871L275.356 378.198C265.252 385.184 251.296 381.495 245.965 370.428L97.6164 62.5L269.616 363.5" stroke="black" stroke-width="40"/>
<path d="M498.116 19L308.043 357.086C302.984 366.084 305.605 377.455 314.093 383.331L320.363 387.671C330.471 394.669 344.439 390.976 349.769 379.898L498.116 71.5688L326.116 372.963" stroke="black" stroke-width="40"/>
</svg>
