<svg width="128" height="168" viewBox="0 0 128 168" fill="none" xmlns="http://www.w3.org/2000/svg">
<path fill-rule="evenodd" clip-rule="evenodd" d="M102 126C97.295 126 93.0364 127.911 89.9584 131H83.6299L64 97L44.3701 131H37.0416C33.9636 127.911 29.705 126 25 126C24.5117 126 24.0282 126.021 23.5503 126.061L64 56L104.522 126.186C103.699 126.063 102.857 126 102 126Z" fill="black"/>
<path fill-rule="evenodd" clip-rule="evenodd" d="M25 168C38.8071 168 50 156.807 50 143C50 129.193 38.8071 118 25 118C11.1929 118 0 129.193 0 143C0 156.807 11.1929 168 25 168ZM25 160C34.3889 160 42 152.389 42 143C42 133.611 34.3889 126 25 126C15.6111 126 8 133.611 8 143C8 152.389 15.6111 160 25 160Z" fill="black"/>
<path fill-rule="evenodd" clip-rule="evenodd" d="M103 168C116.807 168 128 156.807 128 143C128 129.193 116.807 118 103 118C89.1929 118 78 129.193 78 143C78 156.807 89.1929 168 103 168ZM102 160C111.389 160 119 152.389 119 143C119 133.611 111.389 126 102 126C92.6111 126 85 133.611 85 143C85 152.389 92.6111 160 102 160Z" fill="black"/>
<path fill-rule="evenodd" clip-rule="evenodd" d="M107.353 22.4876L64 97L20.6468 22.4876C22.1011 13.0986 25.9071 5.14803 31.0336 0.250007L31.8127 0.250007L64 56L96.1873 0.250013L96.9664 0.250013C102.093 5.14804 105.899 13.0986 107.353 22.4876Z" fill="black"/>
</svg>
