<svg width="82" height="82" viewBox="0 0 82 82" fill="none" xmlns="http://www.w3.org/2000/svg">
<path fill-rule="evenodd" clip-rule="evenodd" d="M0 5C0 6.38071 0.559644 7.63071 1.46447 8.53553L33.9289 41L1.46447 73.4645C0.559643 74.3693 0 75.6193 0 77C0 79.7614 2.23858 82 5 82C6.38071 82 7.63071 81.4404 8.53553 80.5355L41 48.0711L73.4645 80.5355C74.3693 81.4404 75.6193 82 77 82C79.7614 82 82 79.7614 82 77C82 75.6193 81.4404 74.3693 80.5355 73.4645L48.0711 41L80.5355 8.53554C81.4404 7.63072 82 6.38071 82 5C82 2.23858 79.7614 0 77 0C75.6193 0 74.3693 0.55964 73.4645 1.46446L41 33.9289L8.53553 1.46447C7.63071 0.559644 6.38071 0 5 0C2.23858 0 0 2.23858 0 5Z" fill="#AB181A"/>
</svg>
