<svg width="86" height="46" viewBox="0 0 86 46" fill="none" xmlns="http://www.w3.org/2000/svg">
<path d="M83 34.8644C83 43 83 43 74.9661 43L28.1017 43L4 23L28.1017 3L74.9661 3C83 3 83 3 83 11.1356V34.8644Z" stroke="#FDF5E0" stroke-width="5"/>
<path fill-rule="evenodd" clip-rule="evenodd" d="M57 18.7574L48.1219 9.87928L48.1213 9.87868C47.5784 9.33579 46.8284 9 46 9C44.3431 9 43 10.3431 43 12C43 12.8284 43.3358 13.5784 43.8787 14.1213L43.8793 14.1219L52.7574 23L43.8787 31.8787C43.3358 32.4216 43 33.1716 43 34C43 35.6569 44.3431 37 46 37C46.8284 37 47.5784 36.6642 48.1213 36.1213L57 27.2426L65.8787 36.1213C66.4216 36.6642 67.1716 37 68 37C69.6569 37 71 35.6569 71 34C71 33.1716 70.6642 32.4216 70.1213 31.8787L61.2426 23L70.1213 14.1213C70.6642 13.5784 71 12.8284 71 12C71 10.3431 69.6569 9 68 9C67.1716 9 66.4216 9.33579 65.8787 9.87868L57 18.7574Z" fill="#FDF5E0"/>
</svg>
